<?xml version="1.0" encoding="utf-8"?>
<!-- Generator: Adobe Illustrator 16.0.0, SVG Export Plug-In . SVG Version: 6.00 Build 0)  -->
<!DOCTYPE svg PUBLIC "-//W3C//DTD SVG 1.1//EN" "http://www.w3.org/Graphics/SVG/1.1/DTD/svg11.dtd">
<svg version="1.1" id="Layer_1" xmlns="http://www.w3.org/2000/svg" xmlns:xlink="http://www.w3.org/1999/xlink" x="0px" y="0px"
	 width="60px" height="60px" viewBox="3 4 60 60" enable-background="new 3 4 60 60" xml:space="preserve">
<path fill="#010101" d="M28.765,50.32h6.744V33.998h4.499l0.596-5.624h-5.095l0.007-2.816c0-1.466,0.141-2.253,2.244-2.253h2.812
	V17.68h-4.5c-5.405,0-7.307,2.729-7.307,7.317v3.377h-3.369v5.625h3.369V50.32z M33,64C16.432,64,3,50.568,3,34
	C3,17.431,16.432,4,33,4c16.568,0,30,13.431,30,30C63,50.568,49.568,64,33,64z"/>
</svg>
