<?xml version="1.0" encoding="utf-8"?>
<!-- Generator: Adobe Illustrator 27.9.2, SVG Export Plug-In . SVG Version: 6.00 Build 0)  -->
<svg version="1.1" xmlns="http://www.w3.org/2000/svg" xmlns:xlink="http://www.w3.org/1999/xlink" x="0px" y="0px"
	 viewBox="0 0 3600 3600" style="enable-background:new 0 0 3600 3600;" xml:space="preserve">
<style type="text/css">
	.st0{display:none;}
	.st1{display:inline;}
</style>
<g id="nolip">
	<g>
		<g id="bottom_full" class="st0">
			<g id="right_00000057119625007170200360000008480690832910707879_">
				<path class="st1" d="M1386.967,2320.211h86.159c9.79,0,19.536,0.988,29.237,2.966c9.697,1.978,18.362,5.465,25.989,10.452
					c7.628,4.992,13.794,11.68,18.503,20.057c4.705,8.382,7.062,18.883,7.062,31.498c0,12.244-3.006,23.022-9.018,32.345
					s-14.65,16.525-25.914,21.61l50.751,81.074h-77.229l-38.312-71.47h-1.973v71.47h-65.256V2320.211z M1451.656,2404.675h13.176
					c2.242,0,4.719-0.186,7.43-0.564c2.709-0.376,5.23-1.175,7.564-2.401c2.335-1.223,4.299-2.918,5.889-5.085
					c1.589-2.163,2.383-5.036,2.383-8.616c0-3.575-0.657-6.399-1.964-8.475c-1.307-2.07-2.988-3.624-5.045-4.661
					c-2.058-1.032-4.3-1.694-6.728-1.978c-2.427-0.282-4.67-0.423-6.727-0.423h-15.979V2404.675z"/>
				<path class="st1" d="M1588.66,2320.211h67.798v200.002h-67.798V2320.211z"/>
				<path class="st1" d="M1795.441,2525.298c-15.819,0-30.465-2.45-43.928-7.345c-13.467-4.896-25.141-11.909-35.027-21.046
					c-9.888-9.132-17.656-20.197-23.307-33.192c-5.648-12.994-8.475-27.494-8.475-43.503c0-16.005,2.826-30.509,8.475-43.503
					c5.65-12.995,13.37-24.104,23.164-33.334c9.791-9.226,21.28-16.336,34.465-21.328c13.18-4.987,27.304-7.486,42.373-7.486
					c15.629,0,30.46,2.543,44.492,7.628c14.027,5.085,25.468,12.054,34.322,20.904l-39.266,47.175
					c-4.145-4.895-9.04-8.801-14.689-11.723c-5.65-2.918-12.62-4.379-20.904-4.379c-5.465,0-10.783,1.086-15.961,3.249
					c-5.182,2.167-9.746,5.274-13.701,9.322c-3.955,4.052-7.159,8.898-9.604,14.548c-2.45,5.649-3.673,11.962-3.673,18.927
					c0,13.939,3.625,25.282,10.877,34.04c7.247,8.757,18.878,13.136,34.887,13.136c2.825,0,5.742-0.234,8.758-0.706
					c3.01-0.468,5.367-1.175,7.062-2.119v-15.254h-32.205v-52.826h91.81v109.323c-4.71,2.825-10.126,5.416-16.243,7.769
					c-6.122,2.357-12.619,4.379-19.492,6.073c-6.877,1.695-14.08,3.06-21.609,4.097
					C1810.506,2524.776,1802.971,2525.298,1795.441,2525.298z"/>
				<path class="st1" d="M2031.035,2444.224h-54.803v75.989H1909v-200.002h66.949v67.797h54.803v-67.797h67.516v200.002h-67.232
					V2444.224z"/>
				<path class="st1" d="M2235.271,2520.213h-67.232v-143.222h-49.153v-56.78h165.539v56.78h-49.153V2520.213z"/>
			</g>
			<g id="center_00000138550588124296577550000013127649578225522363_" class="st1">
				<path d="M1243.418,2420.212c0-16.005,2.825-30.509,8.475-43.503c5.65-12.995,13.369-24.104,23.164-33.334
					c9.79-9.226,21.328-16.336,34.605-21.328c13.276-4.987,27.445-7.486,42.514-7.486c15.44,0,30.037,2.499,43.786,7.486
					c13.745,4.992,25.234,11.724,34.464,20.198l-41.244,49.718c-3.769-4.895-8.475-8.616-14.123-11.158
					c-5.65-2.542-11.963-3.813-18.928-3.813c-5.649,0-10.924,0.988-15.818,2.966c-4.9,1.978-9.182,4.851-12.854,8.616
					c-3.673,3.77-6.547,8.333-8.616,13.7c-2.075,5.367-3.107,11.349-3.107,17.938c0,6.595,1.081,12.478,3.249,17.655
					c2.162,5.182,5.084,9.653,8.757,13.418c3.673,3.77,7.954,6.639,12.853,8.616c4.896,1.978,10.073,2.966,15.537,2.966
					c7.721,0,14.359-1.598,19.916-4.802c5.553-3.2,9.932-6.965,13.135-11.3l41.244,49.436c-9.039,9.04-20.154,16.243-33.334,21.61
					c-13.184,5.367-28.156,8.051-44.916,8.051c-15.068,0-29.237-2.542-42.514-7.627c-13.277-5.085-24.815-12.288-34.605-21.61
					c-9.795-9.322-17.514-20.432-23.164-33.334C1246.243,2450.394,1243.418,2436.031,1243.418,2420.212z"/>
				<path d="M1449.069,2320.211h137.572v55.933h-74.294v17.231h69.773v52.261h-69.773v18.645h79.096v55.933h-142.374V2320.211z"/>
				<path d="M1619.409,2320.211h66.95l57.062,101.413h1.13l-2.825-101.413h63.844v200.002h-68.646l-55.368-95.481h-1.13
					l2.825,95.481h-63.843V2320.211z"/>
				<path d="M1942.572,2520.213h-67.232v-143.222h-49.152v-56.78h165.537v56.78h-49.152V2520.213z"/>
				<path d="M2012.346,2320.211h137.572v55.933h-74.295v17.231h69.773v52.261h-69.773v18.645h79.096v55.933h-142.373V2320.211z"/>
				<path d="M2182.686,2320.211h86.158c9.791,0,19.535,0.988,29.238,2.966c9.697,1.978,18.361,5.465,25.988,10.452
					c7.627,4.992,13.793,11.68,18.504,20.057c4.705,8.382,7.061,18.883,7.061,31.498c0,12.244-3.006,23.022-9.018,32.345
					s-14.648,16.525-25.912,21.61l50.75,81.074h-77.23l-38.312-71.47h-1.973v71.47h-65.254V2320.211z M2247.375,2404.675h13.176
					c2.242,0,4.719-0.186,7.428-0.564c2.711-0.376,5.23-1.175,7.566-2.401c2.334-1.223,4.299-2.918,5.887-5.085
					c1.59-2.163,2.385-5.036,2.385-8.616c0-3.575-0.658-6.399-1.965-8.475c-1.307-2.07-2.988-3.624-5.045-4.661
					c-2.057-1.032-4.299-1.694-6.727-1.978c-2.428-0.282-4.67-0.423-6.727-0.423h-15.979V2404.675z"/>
			</g>
			<g id="left_00000155147520165659250220000004032111455116626352_">
				<path class="st1" d="M1338.903,2320.211h67.797v142.092h66.385v57.91h-134.182V2320.211z"/>
				<path class="st1" d="M1493.988,2320.211h137.572v55.933h-74.295v17.231h69.774v52.261h-69.774v18.645h79.097v55.933h-142.374
					V2320.211z"/>
				<path class="st1" d="M1730.147,2397.33h61.018v55.086h-60.734v67.797h-66.103v-200.002h135.029v56.215h-69.21V2397.33z"/>
				<path class="st1" d="M1928.172,2520.213h-67.232v-143.222h-49.153v-56.78h165.538v56.78h-49.152V2520.213z"/>
			</g>
		</g>
		<g id="bottom_small" class="st0">
			<g id="right" class="st1">
				<path d="M1924.917,2345.648h31.356v8.475h0.282c1.601-3.012,3.978-5.508,7.133-7.485c3.153-1.978,6.851-2.967,11.088-2.967
					c2.542,0,4.612,0.236,6.215,0.707l-2.542,27.684c-1.037-0.282-2.189-0.494-3.461-0.636s-2.426-0.212-3.461-0.212
					c-4.236,0-7.627,1.225-10.169,3.673c-2.542,2.449-3.813,5.462-3.813,9.039v36.018h-32.628V2345.648z"/>
				<path d="M1987.346,2324.18c0-2.26,0.445-4.4,1.342-6.427c0.895-2.023,2.119-3.789,3.672-5.297
					c1.555-1.505,3.366-2.705,5.438-3.602c2.07-0.894,4.284-1.342,6.639-1.342c2.26,0,4.378,0.448,6.356,1.342
					c1.977,0.896,3.742,2.097,5.297,3.602c1.553,1.508,2.775,3.273,3.672,5.297c0.894,2.026,1.342,4.167,1.342,6.427
					c0,2.354-0.448,4.544-1.342,6.567c-0.896,2.026-2.119,3.768-3.672,5.227c-1.555,1.461-3.32,2.613-5.297,3.46
					c-1.979,0.848-4.097,1.271-6.356,1.271c-2.354,0-4.568-0.424-6.639-1.271c-2.072-0.847-3.884-1.999-5.438-3.46
					c-1.553-1.459-2.777-3.2-3.672-5.227C1987.791,2328.724,1987.346,2326.534,1987.346,2324.18z M1987.911,2345.648h32.628v74.295
					h-32.628V2345.648z"/>
				<path d="M2032.684,2382.514c0-4.803,0.729-9.51,2.189-14.125c1.459-4.612,3.602-8.757,6.427-12.429
					c2.825-3.673,6.356-6.639,10.593-8.898c4.238-2.26,9.133-3.391,14.689-3.391c3.955,0,7.84,0.755,11.653,2.261
					c3.813,1.507,6.942,3.908,9.393,7.203h0.424v-7.486h30.649v66.668c0,8.097-1.319,14.83-3.954,20.197
					c-2.638,5.368-6.145,9.627-10.522,12.783c-4.379,3.153-9.347,5.367-14.902,6.639c-5.557,1.271-11.206,1.906-16.949,1.906
					c-7.062,0-14.124-0.918-21.186-2.754c-7.062-1.836-13.231-4.544-18.504-8.122l14.266-21.61c3.578,2.73,7.346,4.732,11.3,6.003
					c3.955,1.271,7.72,1.907,11.3,1.907c2.353,0,4.59-0.307,6.709-0.918c2.119-0.614,3.977-1.508,5.579-2.684
					c1.601-1.179,2.871-2.638,3.813-4.379c0.94-1.741,1.412-3.743,1.412-6.003v-3.249h-0.424c-1.789,2.073-4.449,3.909-7.979,5.509
					c-3.531,1.603-7.557,2.401-12.077,2.401c-5.744,0-10.734-1.011-14.971-3.037c-4.238-2.023-7.77-4.753-10.594-8.191
					c-2.825-3.437-4.922-7.416-6.285-11.936C2033.365,2392.26,2032.684,2387.506,2032.684,2382.514z M2062.91,2382.514
					c0,3.579,1.035,6.567,3.107,8.969c2.07,2.401,5.085,3.602,9.039,3.602c3.86,0,6.943-1.223,9.252-3.672
					c2.307-2.447,3.461-5.414,3.461-8.898c0-3.295-1.154-6.166-3.461-8.616c-2.309-2.447-5.392-3.672-9.252-3.672
					c-3.954,0-6.969,1.225-9.039,3.672C2063.945,2376.348,2062.91,2379.219,2062.91,2382.514z"/>
				<path d="M2187.283,2343.671c5.164,0,9.459,0.942,12.887,2.825c3.426,1.885,6.148,4.309,8.166,7.274s3.425,6.285,4.224,9.958
					c0.8,3.672,1.198,7.345,1.198,11.017v45.198h-32.627v-39.549c0-3.765-0.59-6.402-1.766-7.909
					c-1.179-1.505-2.944-2.26-5.297-2.26c-1.885,0-3.58,0.825-5.084,2.472c-1.508,1.648-2.261,4.262-2.261,7.839v39.407h-32.628
					v-106.781h32.628v40.679h0.282c1.877-2.729,4.553-5.106,8.027-7.133C2178.507,2344.685,2182.59,2343.671,2187.283,2343.671z"/>
				<path d="M2260.508,2421.921c-9.982,0-17.373-2.141-22.176-6.427c-4.803-4.283-7.203-10.946-7.203-19.986v-26.554h-10.452
					v-23.306h10.312v-16.666h31.639v16.666h16.102v23.306h-16.102v19.774c0,3.579,0.776,6.003,2.33,7.273
					c1.554,1.271,3.694,1.907,6.426,1.907c1.035,0,2.119-0.093,3.25-0.282c1.129-0.188,2.023-0.375,2.684-0.565v22.316
					c-1.695,0.753-4.074,1.364-7.133,1.837C2267.122,2421.685,2263.897,2421.921,2260.508,2421.921z"/>
			</g>
			<g id="center" class="st1">
				<path d="M1615.949,2422.843c-6.31,0-12.101-0.942-17.373-2.825c-5.274-1.883-9.841-4.566-13.701-8.051
					c-3.861-3.482-6.874-7.674-9.039-12.571c-2.168-4.895-3.248-10.403-3.248-16.525c0-6.024,1.105-11.512,3.318-16.455
					c2.211-4.943,5.297-9.156,9.252-12.641c3.955-3.483,8.592-6.167,13.912-8.052c5.318-1.882,11.088-2.824,17.303-2.824
					c2.543,0,5.107,0.212,7.697,0.636c2.59,0.423,5.086,1.013,7.486,1.765c2.401,0.755,4.613,1.603,6.639,2.543
					c2.023,0.942,3.742,1.978,5.155,3.107l-16.243,23.446c-1.13-1.271-2.613-2.249-4.449-2.931s-3.602-1.024-5.297-1.024
					c-1.602,0-3.156,0.261-4.66,0.777c-1.508,0.519-2.85,1.319-4.025,2.401c-1.18,1.083-2.144,2.4-2.896,3.954
					c-0.754,1.554-1.129,3.368-1.129,5.438c0,2.072,0.375,3.884,1.129,5.438c0.753,1.554,1.717,2.825,2.896,3.813
					c1.176,0.989,2.518,1.744,4.025,2.261c1.504,0.519,3.059,0.776,4.66,0.776c1.883,0,3.719-0.354,5.509-1.06
					c1.788-0.706,3.249-1.671,4.379-2.896l16.384,22.785c-3.107,2.436-7.133,4.497-12.076,6.184
					C1626.613,2421.999,1621.409,2422.843,1615.949,2422.843z"/>
				<path d="M1727.389,2383.576c0,1.226-0.023,2.472-0.07,3.743c-0.049,1.271-0.119,2.331-0.212,3.178h-50.001
					c0.094,1.32,0.541,2.496,1.342,3.531c0.799,1.037,1.788,1.932,2.967,2.684c1.176,0.755,2.494,1.32,3.955,1.695
					c1.459,0.377,2.941,0.564,4.449,0.564c3.012,0,5.53-0.54,7.557-1.624c2.023-1.081,3.553-2.282,4.59-3.602l23.164,11.724
					c-3.297,5.367-8.075,9.604-14.336,12.712c-6.264,3.107-13.537,4.661-21.822,4.661c-5.367,0-10.594-0.848-15.678-2.543
					c-5.086-1.694-9.583-4.213-13.489-7.557c-3.909-3.341-7.04-7.508-9.394-12.5c-2.354-4.989-3.53-10.78-3.53-17.373
					c0-6.12,1.081-11.652,3.249-16.596c2.164-4.944,5.106-9.133,8.827-12.571c3.719-3.436,8.097-6.096,13.136-7.98
					c5.036-1.882,10.428-2.824,16.172-2.824c5.838,0,11.159,1.013,15.961,3.036c4.803,2.026,8.921,4.852,12.359,8.475
					c3.436,3.626,6.096,7.935,7.98,12.924C1726.447,2372.325,1727.389,2377.739,1727.389,2383.576z M1699.281,2372.983
					c0-2.636-0.967-4.803-2.896-6.497c-1.931-1.695-4.544-2.543-7.839-2.543c-3.58,0-6.355,0.989-8.334,2.967
					c-1.977,1.977-3.107,4.003-3.389,6.073H1699.281z"/>
				<path d="M1738.828,2345.723h31.78v8.192h0.282c1.876-2.729,4.67-5.106,8.377-7.133c3.709-2.023,7.959-3.037,12.748-3.037
					c5.162,0,9.457,0.942,12.885,2.825c3.424,1.885,6.148,4.309,8.168,7.274c2.016,2.966,3.424,6.285,4.223,9.958
					c0.799,3.672,1.199,7.345,1.199,11.017v45.198h-32.627v-39.549c0-3.765-0.59-6.402-1.766-7.909
					c-1.18-1.505-2.945-2.26-5.297-2.26c-2.168,0-3.934,0.871-5.297,2.612c-1.366,1.744-2.049,4.262-2.049,7.557v39.549h-32.627
					V2345.723z"/>
				<path d="M1865.24,2421.995c-9.982,0-17.373-2.141-22.176-6.427c-4.803-4.283-7.203-10.946-7.203-19.986v-26.554h-10.453v-23.306
					h10.311v-16.666h31.639v16.666h16.104v23.306h-16.104v19.774c0,3.579,0.777,6.003,2.332,7.273
					c1.553,1.271,3.693,1.907,6.426,1.907c1.035,0,2.119-0.093,3.248-0.282c1.131-0.188,2.025-0.375,2.684-0.565v22.316
					c-1.693,0.753-4.072,1.364-7.133,1.837C1871.854,2421.759,1868.629,2421.995,1865.24,2421.995z"/>
				<path d="M1969.9,2383.576c0,1.226-0.023,2.472-0.07,3.743c-0.049,1.271-0.119,2.331-0.211,3.178h-50.002
					c0.094,1.32,0.541,2.496,1.342,3.531c0.799,1.037,1.789,1.932,2.967,2.684c1.176,0.755,2.494,1.32,3.955,1.695
					c1.459,0.377,2.941,0.564,4.449,0.564c3.012,0,5.529-0.54,7.557-1.624c2.023-1.081,3.553-2.282,4.59-3.602l23.164,11.724
					c-3.297,5.367-8.074,9.604-14.336,12.712c-6.264,3.107-13.537,4.661-21.822,4.661c-5.367,0-10.594-0.848-15.678-2.543
					c-5.086-1.694-9.584-4.213-13.49-7.557c-3.908-3.341-7.039-7.508-9.393-12.5c-2.354-4.989-3.531-10.78-3.531-17.373
					c0-6.12,1.082-11.652,3.25-16.596c2.164-4.944,5.105-9.133,8.828-12.571c3.717-3.436,8.096-6.096,13.135-7.98
					c5.037-1.882,10.428-2.824,16.172-2.824c5.838,0,11.158,1.013,15.961,3.036c4.803,2.026,8.92,4.852,12.359,8.475
					c3.436,3.626,6.096,7.935,7.98,12.924C1968.959,2372.325,1969.9,2377.739,1969.9,2383.576z M1941.793,2372.983
					c0-2.636-0.967-4.803-2.895-6.497c-1.932-1.695-4.545-2.543-7.84-2.543c-3.58,0-6.355,0.989-8.334,2.967
					c-1.977,1.977-3.107,4.003-3.389,6.073H1941.793z"/>
				<path d="M1981.34,2345.723h31.355v8.475h0.283c1.6-3.012,3.977-5.508,7.133-7.485c3.154-1.978,6.85-2.967,11.088-2.967
					c2.543,0,4.613,0.236,6.215,0.707l-2.543,27.684c-1.037-0.282-2.189-0.494-3.461-0.636c-1.27-0.142-2.424-0.212-3.459-0.212
					c-4.238,0-7.627,1.225-10.17,3.673c-2.543,2.449-3.814,5.462-3.814,9.039v36.018h-32.627V2345.723z"/>
			</g>
			<g id="left" class="st1">
				<path d="M1320.001,2313.236h33.333v106.781h-33.333V2313.236z"/>
				<path d="M1445.849,2383.576c0,1.226-0.024,2.472-0.07,3.743c-0.049,1.271-0.12,2.331-0.212,3.178h-50.001
					c0.093,1.32,0.541,2.496,1.342,3.531c0.799,1.037,1.788,1.932,2.966,2.684c1.177,0.755,2.494,1.32,3.955,1.695
					c1.459,0.377,2.942,0.564,4.449,0.564c3.013,0,5.53-0.54,7.557-1.624c2.023-1.081,3.554-2.282,4.591-3.602l23.164,11.724
					c-3.298,5.367-8.075,9.604-14.337,12.712c-6.263,3.107-13.537,4.661-21.822,4.661c-5.367,0-10.593-0.848-15.678-2.543
					c-5.085-1.694-9.583-4.213-13.489-7.557c-3.908-3.341-7.04-7.508-9.393-12.5c-2.354-4.989-3.531-10.78-3.531-17.373
					c0-6.12,1.082-11.652,3.249-16.596c2.165-4.944,5.106-9.133,8.828-12.571c3.718-3.436,8.097-6.096,13.136-7.98
					c5.036-1.882,10.428-2.824,16.172-2.824c5.838,0,11.158,1.013,15.961,3.036c4.802,2.026,8.92,4.852,12.358,8.475
					c3.437,3.626,6.096,7.935,7.98,12.924C1444.906,2372.325,1445.849,2377.739,1445.849,2383.576z M1417.741,2372.983
					c0-2.636-0.967-4.803-2.896-6.497c-1.932-1.695-4.545-2.543-7.84-2.543c-3.579,0-6.355,0.989-8.333,2.967
					c-1.978,1.977-3.107,4.003-3.39,6.073H1417.741z"/>
				<path d="M1507.147,2334.636c-1.131-0.234-2.261-0.354-3.391-0.354c-3.202,0-5.438,0.988-6.709,2.966s-1.906,4.474-1.906,7.486
					v0.988h15.678v23.306h-15.678v50.989h-32.628v-50.989h-12.712v-23.306h12.712v-1.694c0-4.612,0.543-9.04,1.631-13.277
					c1.086-4.237,2.955-7.98,5.604-11.229c2.648-3.249,6.217-5.813,10.71-7.698c4.491-1.883,10.139-2.825,16.943-2.825
					c2.165,0,4.683,0.166,7.557,0.495c2.871,0.331,5.296,0.871,7.273,1.624l-2.118,24.436
					C1509.266,2335.179,1508.277,2334.871,1507.147,2334.636z"/>
				<path d="M1545.283,2421.995c-9.982,0-17.373-2.141-22.176-6.427c-4.802-4.283-7.203-10.946-7.203-19.986v-26.554h-10.452
					v-23.306h10.311v-16.666h31.639v16.666h16.103v23.306h-16.103v19.774c0,3.579,0.777,6.003,2.331,7.273
					c1.554,1.271,3.694,1.907,6.427,1.907c1.035,0,2.118-0.093,3.248-0.282c1.13-0.188,2.024-0.375,2.684-0.565v22.316
					c-1.694,0.753-4.073,1.364-7.133,1.837C1551.897,2421.759,1548.673,2421.995,1545.283,2421.995z"/>
			</g>
		</g>
		<g id="main_left" class="st0">
			<path class="st1" d="M1320.002,1960.387h67.797v142.092h66.385v57.91h-134.182V1960.387z"/>
			<path class="st1" d="M1475.087,1960.387h137.572v55.933h-74.295v17.231h69.774v52.261h-69.774v18.645h79.097v55.933h-142.374
				V1960.387z"/>
			<path class="st1" d="M1711.246,2037.506h61.018v55.086h-60.734v67.797h-66.103v-200.002h135.029v56.215h-69.21V2037.506z"/>
			<path class="st1" d="M1909.271,2160.389h-67.232v-143.222h-49.153v-56.78h165.538v56.78h-49.152V2160.389z"/>
			<path class="st1" d="M2093.457,1960.387h71.47l77.967,200.002h-73.165l-10.452-29.379h-63.56l-9.888,29.379h-71.187
				L2093.457,1960.387z M2128.203,2030.161l-16.385,49.436h32.486L2128.203,2030.161z"/>
			<path class="st1" d="M2257.014,1960.387h67.797v142.092h66.385v57.91h-134.182V1960.387z"/>
			<path class="st1" d="M2412.099,1960.387h67.797v200.002h-67.797V1960.387z"/>
			<path class="st1" d="M2618.878,2165.474c-15.819,0-30.464-2.45-43.927-7.345c-13.467-4.896-25.142-11.909-35.028-21.046
				c-9.888-9.132-17.655-20.197-23.306-33.192c-5.649-12.994-8.475-27.494-8.475-43.503c0-16.005,2.825-30.509,8.475-43.503
				c5.65-12.995,13.37-24.104,23.164-33.334c9.79-9.226,21.279-16.336,34.464-21.328c13.18-4.987,27.305-7.486,42.373-7.486
				c15.63,0,30.461,2.543,44.492,7.628c14.027,5.085,25.468,12.054,34.322,20.904l-39.266,47.175
				c-4.145-4.895-9.04-8.801-14.689-11.723c-5.649-2.918-12.619-4.379-20.904-4.379c-5.465,0-10.783,1.086-15.961,3.249
				c-5.182,2.167-9.745,5.274-13.7,9.322c-3.955,4.052-7.159,8.898-9.604,14.548c-2.45,5.649-3.673,11.962-3.673,18.927
				c0,13.939,3.624,25.282,10.876,34.04c7.248,8.757,18.878,13.136,34.888,13.136c2.824,0,5.742-0.234,8.757-0.706
				c3.011-0.468,5.367-1.175,7.062-2.119v-15.254h-32.204v-52.826h91.809v109.323c-4.709,2.825-10.125,5.416-16.243,7.769
				c-6.122,2.357-12.619,4.379-19.491,6.073c-6.877,1.695-14.08,3.06-21.61,4.097
				C2633.943,2164.952,2626.408,2165.474,2618.878,2165.474z"/>
			<path class="st1" d="M2732.438,1960.387h66.949l57.063,101.413h1.13l-2.825-101.413h63.843v200.002h-68.646l-55.367-95.481h-1.13
				l2.824,95.481h-63.842V1960.387z"/>
			<path class="st1" d="M2955.882,1960.387h137.572v55.933h-74.295v17.231h69.774v52.261h-69.774v18.645h79.097v55.933h-142.374
				V1960.387z"/>
			<path class="st1" d="M3126.222,2160.389v-200.002h74.577c15.819,0,30.933,1.554,45.339,4.661
				c14.407,3.107,27.119,8.475,38.137,16.102c11.017,7.627,19.818,17.753,26.412,30.367c6.59,12.62,9.888,28.532,9.888,47.741
				c0,17.514-3.156,32.676-9.464,45.48c-6.312,12.81-14.738,23.306-25.283,31.498c-10.549,8.191-22.695,14.266-36.44,18.22
				c-13.749,3.955-28.063,5.933-42.938,5.933H3126.222z M3190.911,2017.449v85.029h12.43c15.819,0,27.967-3.425,36.441-10.275
				s12.712-18.066,12.712-33.647c0-12.95-4.237-23.036-12.712-30.266c-8.475-7.226-19.774-10.841-33.899-10.841H3190.911z"/>
		</g>
		<g id="main_center">
			<path d="M1444.689,2165.862c-8.1,0-16.058-0.706-23.87-2.105c-7.817-1.407-15.352-3.469-22.599-6.184
				c-7.252-2.719-14.081-5.901-20.48-9.556c-6.405-3.655-12.147-7.729-17.232-12.227l40.961-44.506
				c4.705,5.085,10.969,9.605,18.785,13.56c7.812,3.955,15.863,5.933,24.153,5.933c3.765,0,7.203-0.657,10.311-1.981
				c3.107-1.32,4.661-3.774,4.661-7.358c0-1.885-0.521-3.487-1.554-4.812c-1.037-1.319-2.874-2.688-5.509-4.1
				c-2.639-1.413-6.264-2.971-10.875-4.67c-4.617-1.695-10.408-3.677-17.373-5.946c-6.78-2.26-13.277-4.947-19.492-8.063
				c-6.215-3.112-11.723-6.935-16.525-11.463c-4.803-4.529-8.616-9.949-11.441-16.27c-2.824-6.321-4.236-13.913-4.236-22.785
				c0-12.447,2.541-23.014,7.627-31.691c5.084-8.678,11.625-15.802,19.633-21.367c8.002-5.566,16.993-9.574,26.978-12.028
				c9.979-2.454,19.866-3.682,29.661-3.682c13.18,0,26.598,2.543,40.255,7.628c13.651,5.085,25.657,12.43,36.017,22.034
				l-41.808,42.655c-4.521-5.649-10.077-9.931-16.667-12.853c-6.594-2.918-12.527-4.379-17.797-4.379
				c-4.899,0-8.854,0.706-11.864,2.118c-3.015,1.413-4.521,3.722-4.521,6.921c0,3.015,1.555,5.275,4.662,6.78
				c3.107,1.51,8.143,3.39,15.113,5.649c7.154,2.26,14.688,4.899,22.599,7.91c7.909,3.015,15.206,6.921,21.893,11.723
				c6.683,4.803,12.191,10.69,16.526,17.656c4.329,6.97,6.496,15.634,6.496,25.988c0,12.055-2.4,22.556-7.203,31.498
				c-4.803,8.947-11.114,16.384-18.927,22.316c-7.817,5.933-16.622,10.359-26.413,13.277
				C1464.839,2164.401,1454.859,2165.862,1444.689,2165.862z"/>
			<path d="M1544.404,2059.082c0-16.005,2.826-30.46,8.475-43.362c5.65-12.897,13.419-23.87,23.307-32.91
				c9.887-9.039,21.609-16.005,35.17-20.904c13.559-4.895,28.248-7.345,44.067-7.345s30.509,2.45,44.068,7.345
				c13.56,4.899,25.327,11.865,35.312,20.904c9.979,9.04,17.797,20.013,23.446,32.91c5.649,12.902,8.475,27.357,8.475,43.362
				c0,16.009-2.825,30.605-8.475,43.785c-5.649,13.185-13.467,24.436-23.446,33.758c-9.984,9.322-21.752,16.525-35.312,21.61
				s-28.249,7.627-44.068,7.627s-30.509-2.542-44.067-7.627c-13.561-5.085-25.283-12.288-35.17-21.61
				c-9.888-9.322-17.656-20.573-23.307-33.758C1547.23,2089.688,1544.404,2075.091,1544.404,2059.082z M1615.875,2059.082
				c0,6.594,0.988,12.619,2.966,18.079c1.978,5.465,4.705,10.17,8.192,14.124c3.482,3.955,7.671,7.019,12.57,9.182
				c4.895,2.167,10.17,3.248,15.819,3.248s10.876-1.081,15.679-3.248c4.802-2.163,8.99-5.227,12.57-9.182
				c3.575-3.954,6.355-8.659,8.334-14.124c1.977-5.46,2.966-11.485,2.966-18.079c0-6.4-0.989-12.288-2.966-17.655
				c-1.979-5.368-4.759-9.888-8.334-13.56c-3.58-3.673-7.769-6.542-12.57-8.616c-4.803-2.07-10.029-3.107-15.679-3.107
				s-10.925,1.037-15.819,3.107c-4.899,2.074-9.088,4.943-12.57,8.616c-3.487,3.672-6.215,8.191-8.192,13.56
				C1616.863,2046.794,1615.875,2052.682,1615.875,2059.082z"/>
			<path d="M1794.971,1960.211h67.798v142.092h66.385v57.91h-134.183V1960.211z"/>
			<path d="M1950.057,1960.211h67.797v200.002h-67.797V1960.211z"/>
			<path d="M2055.141,2160.213v-200.002h74.577c15.819,0,30.933,1.554,45.339,4.661c14.407,3.107,27.119,8.475,38.137,16.102
				c11.017,7.627,19.818,17.753,26.412,30.367c6.59,12.62,9.888,28.532,9.888,47.741c0,17.514-3.156,32.676-9.464,45.48
				c-6.312,12.81-14.738,23.306-25.283,31.498c-10.549,8.191-22.695,14.266-36.44,18.22c-13.749,3.955-28.063,5.933-42.938,5.933
				H2055.141z M2119.83,2017.273v85.029h12.43c15.819,0,27.967-3.425,36.441-10.275s12.712-18.066,12.712-33.647
				c0-12.95-4.237-23.036-12.712-30.266c-8.475-7.226-19.774-10.841-33.899-10.841H2119.83z"/>
		</g>
		<g id="square">
			<g>
				<polygon points="1400,1920 1400,1400 2200,1400 2200,1920 2280,1920 2280,1320 1320,1320 1320,1920 				"/>
			</g>
			<g>
				<rect x="1320" y="2200" width="960" height="80"/>
			</g>
		</g>
	</g>
</g>
<g id="lip">
</g>
<g id="guides">
</g>
</svg>
