<?xml version="1.0" encoding="utf-8"?>
<!-- Generator: Adobe Illustrator 27.9.2, SVG Export Plug-In . SVG Version: 6.00 Build 0)  -->
<svg version="1.1" id="Layer_1" xmlns="http://www.w3.org/2000/svg" xmlns:xlink="http://www.w3.org/1999/xlink" x="0px" y="0px"
	 viewBox="0 0 1190 1190" style="enable-background:new 0 0 1190 1190;" xml:space="preserve">
<g>
	<rect x="419.3" y="600" width="353" height="110"/>
	<rect x="419.3" y="210" width="353" height="130"/>
	<rect x="419.3" y="410" width="353" height="120"/>
	<rect x="419.3" y="780" width="353" height="100"/>
	<path d="M276.9,1021.8v18.2h639.4v-18.2c-94.8,0-142.8-23.9-144-71.8h-353C418.1,997.9,370.6,1021.8,276.9,1021.8z"/>
	<path d="M0,340h196.3c18.7-68.5,50-111.9,94-130H0L0,340z"/>
	<rect x="0" width="1190" height="140"/>
	<path d="M993.7,340H1190V210H899.7C943.7,228.1,975,271.5,993.7,340z"/>
	<rect x="276.9" y="1110" width="639.4" height="80"/>
	<path d="M176.1,530v-35.1c1-30.7,3.2-59,6.6-84.9H0v59.1L96.5,530H176.1z"/>
	<path d="M1013.9,494.9V530h79.6l96.5-60.9V410h-182.7C1010.7,435.9,1012.9,464.2,1013.9,494.9z"/>
</g>
</svg>
