<?xml version="1.0" encoding="utf-8"?>
<!-- Generator: Adobe Illustrator 16.0.0, SVG Export Plug-In . SVG Version: 6.00 Build 0)  -->
<!DOCTYPE svg PUBLIC "-//W3C//DTD SVG 1.1//EN" "http://www.w3.org/Graphics/SVG/1.1/DTD/svg11.dtd">
<svg version="1.1" id="content" xmlns="http://www.w3.org/2000/svg" xmlns:xlink="http://www.w3.org/1999/xlink" x="0px" y="0px"
	 width="400px" height="400px" viewBox="0 0 400 400" enable-background="new 0 0 400 400" xml:space="preserve">
<g id="art">
	<g id="road_ticks">
		<polygon fill="#48AAA5" points="203.056,294 202.2,279 197.8,279 196.944,294 		"/>
		<polygon fill="#48AAA5" points="194.092,344 192.667,369 207.334,369 205.908,344 		"/>
		<polygon fill="#48AAA5" points="204.881,326 203.74,306 196.26,306 195.119,326 		"/>
	</g>
	<path id="outer_circle_2_" fill="#CA78A0" d="M200,22.59c97.98,0,177.41,79.43,177.41,177.411c0,97.98-79.43,177.41-177.41,177.41
		S22.59,297.98,22.59,200C22.59,102.02,102.02,22.59,200,22.59 M200,12.327c-25.331,0-49.91,4.964-73.054,14.753
		c-22.35,9.453-42.419,22.983-59.651,40.215c-17.232,17.233-30.763,37.302-40.216,59.651C17.29,150.09,12.327,174.668,12.327,200
		c0,25.332,4.963,49.91,14.752,73.054c9.453,22.348,22.983,42.418,40.216,59.65s37.302,30.764,59.651,40.215
		c23.144,9.789,47.723,14.754,73.054,14.754s49.91-4.965,73.054-14.754c22.35-9.451,42.419-22.982,59.651-40.215
		s30.763-37.303,40.216-59.65c9.788-23.145,14.752-47.723,14.752-73.054c0-25.332-4.964-49.91-14.752-73.054
		c-9.453-22.35-22.983-42.418-40.216-59.651c-17.232-17.232-37.302-30.763-59.651-40.215C249.91,17.291,225.331,12.327,200,12.327
		L200,12.327z"/>
	<path id="trees__x2B__road" fill="#48AAA5" d="M67.909,94.394c0.826,0.649,2,0.614,2.785-0.083
		c1.945-1.728,6.731-2.995,13.288-2.364c-6.905,3.927-12.487,11.78-14.504,21.406c-0.492,2.349-0.759,4.733-0.793,7.101
		l-0.002,0.368c-0.008,1.042,0.727,1.942,1.748,2.146c1.024,0.204,2.045-0.349,2.437-1.314c3.749-9.233,14.106-15.268,26.309-16.187
		c-7.766,4.841-14.154,14.273-16.561,25.762l-0.068,0.3c-0.047,0.2-0.097,0.415-0.146,0.698c-0.279,0.603-0.271,1.153,0.042,1.756
		c0.373,0.721,1.117,1.018,1.929,1.018h0.092c0.919,0,1.716-0.417,2.03-1.241c5.416-7.259,15.198-11.27,25.585-10.925
		c-38.108,28.191-62.939,74.245-62.939,126.247c0,14.833,2.031,29.183,5.808,42.771c2.533,3.985,5.227,7.859,8.07,11.614
		c-6.481-17.313-9.772-35.568-9.772-54.349c0-20.43,3.885-40.248,11.547-58.898c7.398-18.011,17.989-34.184,31.479-48.072
		c6.76-6.96,14.078-13.168,21.896-18.59c-0.161-0.123,0.27-4.325,0.27-4.325c-11.035-2.066-21.854,0.351-29.618,6.246
		c4.61-12.014,14.034-20.072,23.322-19.114c1.167,0.119,2.216-0.707,2.375-1.868c0.157-1.161-0.633-2.238-1.788-2.435l-0.396-0.066
		c-15.081-3.068-29.51,0.853-37.912,9.531c3.217-10.769,11.44-18.325,19.989-17.943c1.149,0.054,2.15-0.812,2.259-1.965
		c0.11-1.152-0.703-2.188-1.849-2.355L90.5,88.635c-0.361-0.085-0.727-0.166-1.095-0.243c-5.411-1.135-10.59-1.229-14.741-0.383
		c5.032-5.732,13.954-8.416,23.077-6.503c6.395,1.339,12.085,4.849,15.611,9.628c0.509,0.691,1.377,1.017,2.217,0.832
		c0.839-0.186,1.489-0.848,1.66-1.689l0.306-1.505c0.019-0.096,0.032-0.194,0.038-0.292c0.617-9.52-3.448-18.765-10.912-25.542
		c0.139,0.028,0.278,0.057,0.417,0.086c8.871,1.858,16.796,5.422,22.314,10.035c5.143,4.298,7.503,8.916,6.646,13.003
		c-0.035,0.168-0.075,0.333-0.121,0.498c-0.27,0.979,0.175,2.016,1.071,2.494s2.004,0.271,2.668-0.497l1.109-1.287
		c4.535-2.049,10.543-2.503,16.572-1.241c4.206,0.882,8.305,3.821,11.553,6.805c-1.115-0.332-2.254-0.62-3.409-0.862
		c-5.493-1.152-13.363-0.667-14.772,0.908c-0.518,0.579-0.702,1.431-0.46,2.168c0.253,0.769,0.9,1.332,1.733,1.506
		c14.824,3.106,23.394,22.364,19.19,43.016c-3.142-8.578-9.643-22.045-20.036-24.223c-1.62-0.339-3.273-0.537-4.915-0.587
		c-0.902-0.034-1.715,0.497-2.064,1.321c-0.351,0.824-0.16,1.779,0.48,2.404c0.188,0.185,18.852,18.626,15.863,32.889
		c-0.081,0.386-0.168,0.77-0.263,1.15c-1.954-6.29-5.504-14.861-10.806-17.193c-0.586-0.258-1.255-0.244-1.83,0.037
		c-0.574,0.281-0.996,0.801-1.151,1.422c-0.046,0.181-1.122,4.47-1.828,7.842c-2.204,10.518-7.845,19.351-14.97,23.905
		c0.93-2.471,1.907-5.312,2.33-7.332c2.525-12.05,0.725-24.419-4.938-33.936c0,0-2.219,0.803-2.433,0.672
		c-32.833,25.705-54.231,67.753-54.231,115.266c0,40.085,15.246,76.262,39.724,102.035c0.666,0.265,1.375,0.506,2.073,0.32
		c0.936-0.249,1.732-0.712,2.555-1.204c0.036-0.039,0.068-0.087,0.106-0.121L200,261.521l85.171,82.727
		c-0.004,0.004,0.12,0.108,0.171,0.161c0.59,0.604,1.021,1.184,1.901,1.409c0.532,0.137,1.013,0.138,1.559,0.073
		c-0.074,0.01,0.601-0.253,0.772-0.31c24.666-25.793,40.044-62.115,40.044-102.374c0-47.513-21.398-89.561-54.231-115.266
		c-0.215,0.13-2.433-0.672-2.433-0.672c-5.663,9.517-7.463,21.885-4.938,33.936c0.423,2.021,1.401,4.861,2.33,7.332
		c-7.125-4.555-12.766-13.388-14.969-23.905c-0.706-3.372-1.782-7.661-1.828-7.842c-0.156-0.621-0.577-1.141-1.152-1.422
		c-0.574-0.282-1.243-0.295-1.829-0.037c-5.303,2.333-8.853,10.903-10.807,17.193c-0.094-0.381-0.182-0.765-0.262-1.149
		c-2.988-14.264,15.674-32.705,15.862-32.89c0.641-0.625,0.832-1.581,0.481-2.404c-0.351-0.824-1.199-1.355-2.065-1.321
		c-1.641,0.05-3.294,0.248-4.914,0.587c-10.394,2.177-16.895,15.644-20.036,24.222c-2.052-10.076-1.146-20.106,2.557-28.274
		c3.637-8.021,9.543-13.256,16.633-14.741c0.833-0.174,1.481-0.738,1.733-1.506c0.242-0.737,0.059-1.59-0.459-2.168
		c-1.41-1.576-9.279-2.059-14.773-0.908c-1.154,0.242-2.293,0.53-3.408,0.862c3.248-2.984,7.347-5.923,11.553-6.805
		c6.026-1.264,12.037-0.809,16.571,1.24l1.11,1.287c0.662,0.77,1.772,0.976,2.668,0.497c0.896-0.479,1.341-1.515,1.07-2.494
		c-0.045-0.164-0.086-0.33-0.121-0.497c-0.856-4.088,1.505-8.706,6.646-13.004c5.519-4.613,13.443-8.177,22.314-10.035
		c0.139-0.029,0.278-0.058,0.417-0.086c-7.464,6.777-11.529,16.022-10.913,25.542c0.007,0.098,0.021,0.196,0.039,0.292l0.306,1.505
		c0.171,0.841,0.821,1.503,1.66,1.689c0.841,0.187,1.707-0.14,2.217-0.831c3.527-4.78,9.217-8.29,15.612-9.629
		c9.121-1.91,18.043,0.771,23.076,6.503c-4.151-0.845-9.331-0.75-14.739,0.383c-0.369,0.077-0.735,0.158-1.098,0.243l-4.318,0.629
		c-1.146,0.167-1.959,1.203-1.849,2.355c0.108,1.152,1.104,2.01,2.259,1.965c8.535-0.376,16.771,7.173,19.988,17.94
		c-8.4-8.676-22.818-12.597-37.843-9.541l-0.465,0.079c-1.154,0.197-1.946,1.274-1.788,2.435c0.159,1.16,1.206,1.987,2.374,1.868
		c9.292-0.953,18.713,7.1,23.323,19.113c-7.764-5.894-18.585-8.31-29.617-6.245c0,0,0.429,4.202,0.269,4.325
		c7.819,5.421,15.137,11.63,21.897,18.591c13.487,13.888,24.079,30.062,31.477,48.072c7.663,18.652,11.548,38.468,11.548,58.9
		c0,18.776-3.291,37.031-9.771,54.345c2.848-3.762,5.545-7.642,8.081-11.635c3.769-13.569,5.795-27.894,5.795-42.71
		c0-52.002-24.832-98.018-62.938-126.209c10.386-0.343,20.169,3.588,25.585,10.847c0.313,0.824,1.11,1.241,2.029,1.241h0.092
		c0.812,0,1.556-0.297,1.929-1.018c0.312-0.604,0.322-1.231,0.043-1.833c-0.05-0.283-0.1-0.46-0.146-0.66l-0.067-0.279
		c-2.408-11.497-8.802-20.924-16.575-25.762c12.19,0.914,22.57,6.957,26.322,16.2c0.393,0.965,1.414,1.522,2.438,1.316
		c1.022-0.204,1.756-1.104,1.748-2.146l-0.003-0.382c-0.034-2.351-0.301-4.734-0.793-7.083c-2.017-9.627-7.599-17.479-14.504-21.407
		c6.557-0.629,11.343,0.637,13.288,2.364c0.786,0.698,1.959,0.733,2.786,0.083c0.825-0.65,1.068-1.798,0.575-2.727l-0.642-1.208
		c-4.656-10.403-17.532-15.954-30.657-13.207c-5.612,1.175-10.635,3.703-14.572,7.276c0.757-9.146,6.522-17.672,15.678-22.85
		c0.35-0.198,0.638-0.488,0.832-0.84l0.075-0.137c0.385-0.695,0.359-1.545-0.066-2.216c-0.427-0.671-1.188-1.057-1.977-1.003
		c-3.065,0.202-6.196,0.635-9.308,1.287c-9.556,2.002-18.153,5.892-24.209,10.954c-4.864,4.066-7.697,8.556-8.271,12.982
		c-5.132-1.9-11.483-2.25-17.779-0.93c-11.043,2.313-20.548,15.447-20.947,16.005c-0.607,0.848-0.525,2.008,0.195,2.763
		c0.719,0.755,1.875,0.891,2.75,0.326c3.312-2.138,7.336-3.745,11.64-4.646c1.127-0.236,2.254-0.382,3.338-0.463
		c-4.7,3.038-8.589,7.719-11.319,13.741c-4.119,9.085-5.109,20.188-2.789,31.263c0.51,2.441,1.182,4.861,1.996,7.192
		c0.316,0.907,1.182,1.507,2.151,1.454c0.959-0.044,1.776-0.714,2.007-1.646c0.017-0.065,1.651-6.571,4.927-13.367
		c2.622-5.437,6.785-12.045,12.244-14.249c-5.852,6.944-15.2,20.264-12.717,32.118c0.621,2.962,1.595,5.82,2.895,8.496
		c0.405,0.837,1.302,1.321,2.223,1.207c0.923-0.115,1.67-0.806,1.858-1.716c1.213-5.873,4.228-15.158,7.887-19.225
		c0.333,1.399,0.713,3.049,1.016,4.495c2.986,14.254,11.862,25.813,22.612,29.448c0.229,0.077,0.462,0.115,0.695,0.115
		c0.595,0,1.176-0.245,1.594-0.697c0.582-0.628,0.74-1.54,0.405-2.328c-0.033-0.078-3.354-7.887-4.162-11.747
		c-2.017-9.623-1.034-19.429,2.669-27.486c4.796,3.927,9.373,8.247,13.688,12.963c11.558,12.634,20.635,27.353,26.979,43.748
		c6.575,16.994,9.909,35.05,9.909,53.669s-3.334,36.676-9.909,53.67c-6.262,16.181-15.191,30.728-26.537,43.252l-87.092-84.594
		c-1.1-1.068-2.849-1.068-3.95,0l-87.092,84.594c-11.345-12.525-20.275-27.071-26.537-43.252
		c-6.575-16.994-9.909-35.051-9.909-53.67s3.334-36.676,9.909-53.669c6.344-16.395,15.421-31.113,26.979-43.748
		c4.314-4.716,8.893-9.036,13.688-12.962c3.704,8.057,4.687,17.862,2.67,27.486c-0.808,3.855-4.129,11.668-4.162,11.746
		c-0.336,0.788-0.178,1.7,0.404,2.328c0.418,0.452,0.999,0.697,1.595,0.697c0.232,0,0.467-0.038,0.695-0.115
		c10.75-3.635,19.625-15.193,22.611-29.448c0.303-1.445,0.684-3.094,1.016-4.493c3.654,4.067,6.671,13.351,7.887,19.223
		c0.189,0.911,0.937,1.601,1.859,1.716c0.922,0.114,1.816-0.37,2.223-1.207c1.3-2.675,2.273-5.533,2.895-8.496
		c2.482-11.853-6.864-25.173-12.717-32.117c5.443,2.198,9.597,8.775,12.213,14.186c3.286,6.798,4.94,13.366,4.957,13.431
		c0.231,0.932,1.049,1.601,2.008,1.645c0.959,0.052,1.834-0.547,2.151-1.454c0.813-2.33,1.485-4.75,1.996-7.191
		c3.997-19.081-2.183-37.227-14.163-45.008c1.1,0.081,2.247,0.228,3.392,0.467c4.304,0.902,8.329,2.508,11.64,4.646
		c0.877,0.565,2.031,0.429,2.751-0.326c0.72-0.755,0.802-1.915,0.194-2.763c-0.398-0.558-9.904-13.692-20.947-16.005
		c-6.297-1.318-12.646-0.97-17.779,0.931c-0.573-4.427-3.406-8.917-8.271-12.982c-6.057-5.062-14.654-8.952-24.21-10.954
		c-3.111-0.652-6.242-1.084-9.307-1.287c-0.785-0.054-1.551,0.332-1.978,1.003c-0.426,0.671-0.451,1.521-0.067,2.216l0.076,0.137
		c0.194,0.352,0.482,0.642,0.832,0.84c9.155,5.178,14.921,13.704,15.679,22.85c-3.938-3.573-8.961-6.1-14.573-7.276
		c-13.123-2.75-26.001,2.804-30.657,13.207l-0.642,1.208C66.84,92.596,67.083,93.745,67.909,94.394z"/>
</g>
<g>
	<path fill="#CA78A0" d="M139.311,196.583h-6.066v19.939c0,1.148-0.256,2.001-0.768,2.556c-0.512,0.556-1.173,0.833-1.985,0.833
		c-0.824,0-1.495-0.28-2.013-0.842c-0.518-0.562-0.777-1.411-0.777-2.547v-19.939h-6.066c-0.949,0-1.654-0.209-2.116-0.627
		c-0.462-0.418-0.693-0.971-0.693-1.657c0-0.711,0.24-1.273,0.721-1.685c0.48-0.412,1.177-0.618,2.088-0.618h17.674
		c0.961,0,1.676,0.212,2.144,0.637c0.468,0.424,0.702,0.98,0.702,1.666c0,0.687-0.237,1.239-0.711,1.657
		C140.971,196.374,140.259,196.583,139.311,196.583z"/>
	<path fill="#CA78A0" d="M145.489,208.098v-13.2c0-1.123,0.253-1.966,0.758-2.527c0.506-0.562,1.171-0.843,1.994-0.843
		c0.861,0,1.545,0.281,2.05,0.843c0.506,0.562,0.759,1.404,0.759,2.527v13.499c0,1.535,0.171,2.818,0.515,3.848
		c0.344,1.03,0.952,1.829,1.825,2.396c0.874,0.568,2.098,0.852,3.67,0.852c2.172,0,3.707-0.576,4.605-1.73
		c0.899-1.155,1.349-2.906,1.349-5.252v-13.612c0-1.136,0.249-1.981,0.749-2.537c0.499-0.556,1.167-0.833,2.003-0.833
		s1.514,0.278,2.031,0.833c0.518,0.555,0.777,1.401,0.777,2.537v13.2c0,2.146-0.209,3.938-0.627,5.373
		c-0.419,1.436-1.208,2.696-2.369,3.782c-0.998,0.924-2.159,1.598-3.482,2.021c-1.323,0.425-2.871,0.637-4.643,0.637
		c-2.109,0-3.926-0.228-5.448-0.683c-1.523-0.456-2.765-1.161-3.727-2.116c-0.961-0.954-1.666-2.178-2.115-3.669
		C145.714,211.951,145.489,210.17,145.489,208.098z"/>
	<path fill="#CA78A0" d="M197.969,210.775c0,0.873-0.215,1.818-0.646,2.836s-1.108,2.016-2.031,2.996
		c-0.924,0.979-2.104,1.775-3.539,2.387s-3.107,0.917-5.018,0.917c-1.448,0-2.765-0.137-3.95-0.411
		c-1.187-0.274-2.263-0.702-3.229-1.283c-0.968-0.58-1.857-1.345-2.668-2.293c-0.725-0.861-1.342-1.826-1.854-2.893
		c-0.513-1.067-0.896-2.207-1.151-3.418c-0.257-1.21-0.384-2.496-0.384-3.855c0-2.21,0.32-4.188,0.964-5.936
		c0.643-1.748,1.563-3.242,2.762-4.484c1.198-1.242,2.603-2.187,4.212-2.836c1.61-0.649,3.326-0.974,5.149-0.974
		c2.222,0,4.2,0.443,5.935,1.33c1.735,0.886,3.064,1.981,3.988,3.286c0.924,1.305,1.386,2.537,1.386,3.698
		c0,0.637-0.226,1.198-0.675,1.685c-0.449,0.487-0.992,0.73-1.629,0.73c-0.711,0-1.245-0.168-1.601-0.506
		c-0.355-0.336-0.752-0.917-1.188-1.741c-0.725-1.36-1.576-2.378-2.556-3.052c-0.98-0.674-2.188-1.011-3.623-1.011
		c-2.284,0-4.104,0.868-5.458,2.603c-1.354,1.735-2.031,4.2-2.031,7.396c0,2.134,0.3,3.91,0.899,5.327
		c0.599,1.416,1.447,2.475,2.546,3.173c1.098,0.699,2.384,1.048,3.856,1.048c1.598,0,2.949-0.396,4.054-1.188
		c1.104-0.793,1.938-1.957,2.5-3.492c0.236-0.725,0.53-1.314,0.88-1.77c0.349-0.455,0.91-0.684,1.685-0.684
		c0.661,0,1.229,0.231,1.704,0.693C197.731,209.514,197.969,210.088,197.969,210.775z"/>
	<path fill="#CA78A0" d="M208.566,194.898v9.624l10.915-11.383c0.524-0.549,0.971-0.955,1.339-1.217
		c0.368-0.262,0.858-0.394,1.47-0.394c0.799,0,1.444,0.234,1.938,0.702c0.493,0.468,0.74,1.039,0.74,1.713
		c0,0.812-0.419,1.616-1.255,2.415l-6.759,6.403l7.788,11.158c0.55,0.774,0.962,1.451,1.236,2.031
		c0.274,0.581,0.412,1.146,0.412,1.694c0,0.612-0.241,1.143-0.722,1.592s-1.132,0.674-1.956,0.674c-0.774,0-1.404-0.165-1.891-0.496
		c-0.487-0.33-0.899-0.771-1.236-1.319c-0.337-0.55-0.637-1.049-0.898-1.498l-6.571-10.11l-4.55,4.362v5.673
		c0,1.148-0.262,2.001-0.786,2.556c-0.524,0.556-1.198,0.833-2.022,0.833c-0.475,0-0.93-0.125-1.366-0.374
		c-0.438-0.25-0.774-0.587-1.012-1.011c-0.175-0.35-0.28-0.756-0.318-1.218c-0.037-0.461-0.056-1.129-0.056-2.003v-20.408
		c0-1.123,0.246-1.966,0.739-2.527c0.493-0.562,1.164-0.843,2.013-0.843c0.836,0,1.514,0.278,2.031,0.833
		C208.308,192.917,208.566,193.762,208.566,194.898z"/>
	<path fill="#CA78A0" d="M249.438,196.284h-12.525v6.74h11.532c0.85,0,1.482,0.19,1.9,0.571c0.419,0.381,0.628,0.884,0.628,1.507
		c0,0.625-0.206,1.133-0.618,1.526s-1.049,0.589-1.91,0.589h-11.532v7.809h12.956c0.873,0,1.531,0.203,1.975,0.607
		c0.443,0.406,0.665,0.945,0.665,1.62c0,0.649-0.222,1.177-0.665,1.582s-1.102,0.608-1.975,0.608H234.76
		c-1.211,0-2.082-0.269-2.612-0.805c-0.53-0.537-0.795-1.404-0.795-2.604v-20.632c0-0.798,0.118-1.451,0.355-1.956
		c0.236-0.506,0.608-0.874,1.114-1.105c0.505-0.23,1.151-0.346,1.938-0.346h14.679c0.886,0,1.544,0.197,1.975,0.59
		s0.646,0.908,0.646,1.544c0,0.649-0.216,1.17-0.646,1.563S250.324,196.284,249.438,196.284z"/>
	<path fill="#CA78A0" d="M264.397,207.704h-1.947v8.818c0,1.161-0.256,2.016-0.768,2.565c-0.512,0.549-1.18,0.823-2.003,0.823
		c-0.887,0-1.573-0.287-2.06-0.861c-0.487-0.573-0.73-1.416-0.73-2.527v-21.119c0-1.198,0.269-2.065,0.806-2.602
		c0.536-0.537,1.403-0.805,2.602-0.805h9.043c1.248,0,2.315,0.053,3.202,0.159c0.886,0.106,1.685,0.321,2.396,0.646
		c0.861,0.362,1.622,0.88,2.284,1.554c0.661,0.674,1.164,1.458,1.507,2.35c0.344,0.893,0.515,1.838,0.515,2.836
		c0,2.047-0.577,3.683-1.731,4.906c-1.154,1.223-2.905,2.09-5.252,2.602c0.986,0.524,1.929,1.299,2.827,2.322
		c0.899,1.023,1.701,2.112,2.406,3.267c0.705,1.155,1.254,2.196,1.647,3.126c0.394,0.931,0.59,1.57,0.59,1.92
		c0,0.362-0.115,0.721-0.347,1.076c-0.23,0.355-0.546,0.637-0.945,0.843s-0.861,0.309-1.386,0.309c-0.624,0-1.148-0.146-1.572-0.439
		c-0.425-0.293-0.79-0.665-1.096-1.114s-0.721-1.111-1.245-1.984l-2.228-3.707c-0.799-1.36-1.514-2.396-2.144-3.108
		c-0.631-0.712-1.271-1.198-1.919-1.46C266.201,207.836,265.384,207.704,264.397,207.704z M267.58,196.171h-5.13v7.545h4.98
		c1.335,0,2.459-0.115,3.37-0.347s1.606-0.624,2.088-1.18c0.479-0.556,0.721-1.32,0.721-2.293c0-0.761-0.194-1.432-0.581-2.013
		s-0.924-1.014-1.609-1.301C270.77,196.309,269.49,196.171,267.58,196.171z"/>
</g>
</svg>
