<?xml version="1.0" encoding="utf-8"?>
<!-- Generator: Adobe Illustrator 16.0.0, SVG Export Plug-In . SVG Version: 6.00 Build 0)  -->
<!DOCTYPE svg PUBLIC "-//W3C//DTD SVG 1.1//EN" "http://www.w3.org/Graphics/SVG/1.1/DTD/svg11.dtd">
<svg version="1.1" id="content" xmlns="http://www.w3.org/2000/svg" xmlns:xlink="http://www.w3.org/1999/xlink" x="0px" y="0px"
	 width="400px" height="400px" viewBox="0 0 400 400" enable-background="new 0 0 400 400" xml:space="preserve">
<g id="art">
	<g id="road_ticks">
		<polygon fill="#48AAA5" points="203.056,294 202.2,279 197.8,279 196.944,294 		"/>
		<polygon fill="#48AAA5" points="194.092,344 192.667,369 207.334,369 205.908,344 		"/>
		<polygon fill="#48AAA5" points="204.881,326 203.74,306 196.26,306 195.119,326 		"/>
	</g>
	<path id="outer_circle_2_" fill="#CA78A0" d="M200,22.59c97.98,0,177.41,79.43,177.41,177.411c0,97.98-79.43,177.41-177.41,177.41
		S22.59,297.98,22.59,200C22.59,102.02,102.02,22.59,200,22.59 M200,12.327c-25.331,0-49.91,4.964-73.054,14.753
		c-22.35,9.453-42.419,22.983-59.651,40.215c-17.232,17.233-30.763,37.302-40.216,59.651C17.29,150.09,12.327,174.668,12.327,200
		c0,25.332,4.963,49.91,14.752,73.054c9.453,22.348,22.983,42.418,40.216,59.65s37.302,30.764,59.651,40.215
		c23.144,9.789,47.723,14.754,73.054,14.754s49.91-4.965,73.054-14.754c22.35-9.451,42.419-22.982,59.651-40.215
		s30.763-37.303,40.216-59.65c9.788-23.145,14.752-47.723,14.752-73.054c0-25.332-4.964-49.91-14.752-73.054
		c-9.453-22.35-22.983-42.418-40.216-59.651c-17.232-17.232-37.302-30.763-59.651-40.215C249.91,17.291,225.331,12.327,200,12.327
		L200,12.327z"/>
	<path id="trees__x2B__road" fill="#48AAA5" d="M67.909,94.394c0.826,0.649,2,0.614,2.785-0.083
		c1.945-1.728,6.731-2.995,13.288-2.364c-6.905,3.927-12.487,11.78-14.504,21.406c-0.492,2.349-0.759,4.733-0.793,7.101
		l-0.002,0.368c-0.008,1.042,0.727,1.942,1.748,2.146c1.024,0.204,2.045-0.349,2.437-1.314c3.749-9.233,14.106-15.268,26.309-16.187
		c-7.766,4.841-14.154,14.273-16.561,25.762l-0.068,0.3c-0.047,0.2-0.097,0.415-0.146,0.698c-0.279,0.603-0.271,1.153,0.042,1.756
		c0.373,0.721,1.117,1.018,1.929,1.018h0.092c0.919,0,1.716-0.417,2.03-1.241c5.416-7.259,15.198-11.27,25.585-10.925
		c-38.108,28.191-62.939,74.245-62.939,126.247c0,14.833,2.031,29.183,5.808,42.771c2.533,3.985,5.227,7.859,8.07,11.614
		c-6.481-17.313-9.772-35.568-9.772-54.349c0-20.43,3.885-40.248,11.547-58.898c7.398-18.011,17.989-34.184,31.479-48.072
		c6.76-6.96,14.078-13.168,21.896-18.59c-0.161-0.123,0.27-4.325,0.27-4.325c-11.035-2.066-21.854,0.351-29.618,6.246
		c4.61-12.014,14.034-20.072,23.322-19.114c1.167,0.119,2.216-0.707,2.375-1.868c0.157-1.161-0.633-2.238-1.788-2.435l-0.396-0.066
		c-15.081-3.068-29.51,0.853-37.912,9.531c3.217-10.769,11.44-18.325,19.989-17.943c1.149,0.054,2.15-0.812,2.259-1.965
		c0.11-1.152-0.703-2.188-1.849-2.355L90.5,88.635c-0.361-0.085-0.727-0.166-1.095-0.243c-5.411-1.135-10.59-1.229-14.741-0.383
		c5.032-5.732,13.954-8.416,23.077-6.503c6.395,1.339,12.085,4.849,15.611,9.628c0.509,0.691,1.377,1.017,2.217,0.832
		c0.839-0.186,1.489-0.848,1.66-1.689l0.306-1.505c0.019-0.096,0.032-0.194,0.038-0.292c0.617-9.52-3.448-18.765-10.912-25.542
		c0.139,0.028,0.278,0.057,0.417,0.086c8.871,1.858,16.796,5.422,22.314,10.035c5.143,4.298,7.503,8.916,6.646,13.003
		c-0.035,0.168-0.075,0.333-0.121,0.498c-0.27,0.979,0.175,2.016,1.071,2.494s2.004,0.271,2.668-0.497l1.109-1.287
		c4.535-2.049,10.543-2.503,16.572-1.241c4.206,0.882,8.305,3.821,11.553,6.805c-1.115-0.332-2.254-0.62-3.409-0.862
		c-5.493-1.152-13.363-0.667-14.772,0.908c-0.518,0.579-0.702,1.431-0.46,2.168c0.253,0.769,0.9,1.332,1.733,1.506
		c14.824,3.106,23.394,22.364,19.19,43.016c-3.142-8.578-9.643-22.045-20.036-24.223c-1.62-0.339-3.273-0.537-4.915-0.587
		c-0.902-0.034-1.715,0.497-2.064,1.321c-0.351,0.824-0.16,1.779,0.48,2.404c0.188,0.185,18.852,18.626,15.863,32.889
		c-0.081,0.386-0.168,0.77-0.263,1.15c-1.954-6.29-5.504-14.861-10.806-17.193c-0.586-0.258-1.255-0.244-1.83,0.037
		c-0.574,0.281-0.996,0.801-1.151,1.422c-0.046,0.181-1.122,4.47-1.828,7.842c-2.204,10.518-7.845,19.351-14.97,23.905
		c0.93-2.471,1.907-5.312,2.33-7.332c2.525-12.05,0.725-24.419-4.938-33.936c0,0-2.219,0.803-2.433,0.672
		c-32.833,25.705-54.231,67.753-54.231,115.266c0,40.085,15.246,76.262,39.724,102.035c0.666,0.265,1.375,0.506,2.073,0.32
		c0.936-0.249,1.732-0.712,2.555-1.204c0.036-0.039,0.068-0.087,0.106-0.121L200,261.521l85.171,82.727
		c-0.004,0.004,0.12,0.108,0.171,0.161c0.59,0.604,1.021,1.184,1.901,1.409c0.532,0.137,1.013,0.138,1.559,0.073
		c-0.074,0.01,0.601-0.253,0.772-0.31c24.666-25.793,40.044-62.115,40.044-102.374c0-47.513-21.398-89.561-54.231-115.266
		c-0.215,0.13-2.433-0.672-2.433-0.672c-5.663,9.517-7.463,21.885-4.938,33.936c0.423,2.021,1.401,4.861,2.33,7.332
		c-7.125-4.555-12.766-13.388-14.969-23.905c-0.706-3.372-1.782-7.661-1.828-7.842c-0.156-0.621-0.577-1.141-1.152-1.422
		c-0.574-0.282-1.243-0.295-1.829-0.037c-5.303,2.333-8.853,10.903-10.807,17.193c-0.094-0.381-0.182-0.765-0.262-1.149
		c-2.988-14.264,15.674-32.705,15.862-32.89c0.641-0.625,0.832-1.581,0.481-2.404c-0.351-0.824-1.199-1.355-2.065-1.321
		c-1.641,0.05-3.294,0.248-4.914,0.587c-10.394,2.177-16.895,15.644-20.036,24.222c-2.052-10.076-1.146-20.106,2.557-28.274
		c3.637-8.021,9.543-13.256,16.633-14.741c0.833-0.174,1.481-0.738,1.733-1.506c0.242-0.737,0.059-1.59-0.459-2.168
		c-1.41-1.576-9.279-2.059-14.773-0.908c-1.154,0.242-2.293,0.53-3.408,0.862c3.248-2.984,7.347-5.923,11.553-6.805
		c6.026-1.264,12.037-0.809,16.571,1.24l1.11,1.287c0.662,0.77,1.772,0.976,2.668,0.497c0.896-0.479,1.341-1.515,1.07-2.494
		c-0.045-0.164-0.086-0.33-0.121-0.497c-0.856-4.088,1.505-8.706,6.646-13.004c5.519-4.613,13.443-8.177,22.314-10.035
		c0.139-0.029,0.278-0.058,0.417-0.086c-7.464,6.777-11.529,16.022-10.913,25.542c0.007,0.098,0.021,0.196,0.039,0.292l0.306,1.505
		c0.171,0.841,0.821,1.503,1.66,1.689c0.841,0.187,1.707-0.14,2.217-0.831c3.527-4.78,9.217-8.29,15.612-9.629
		c9.121-1.91,18.043,0.771,23.076,6.503c-4.151-0.845-9.331-0.75-14.739,0.383c-0.369,0.077-0.735,0.158-1.098,0.243l-4.318,0.629
		c-1.146,0.167-1.959,1.203-1.849,2.355c0.108,1.152,1.104,2.01,2.259,1.965c8.535-0.376,16.771,7.173,19.988,17.94
		c-8.4-8.676-22.818-12.597-37.843-9.541l-0.465,0.079c-1.154,0.197-1.946,1.274-1.788,2.435c0.159,1.16,1.206,1.987,2.374,1.868
		c9.292-0.953,18.713,7.1,23.323,19.113c-7.764-5.894-18.585-8.31-29.617-6.245c0,0,0.429,4.202,0.269,4.325
		c7.819,5.421,15.137,11.63,21.897,18.591c13.487,13.888,24.079,30.062,31.477,48.072c7.663,18.652,11.548,38.468,11.548,58.9
		c0,18.776-3.291,37.031-9.771,54.345c2.848-3.762,5.545-7.642,8.081-11.635c3.769-13.569,5.795-27.894,5.795-42.71
		c0-52.002-24.832-98.018-62.938-126.209c10.386-0.343,20.169,3.588,25.585,10.847c0.313,0.824,1.11,1.241,2.029,1.241h0.092
		c0.812,0,1.556-0.297,1.929-1.018c0.312-0.604,0.322-1.231,0.043-1.833c-0.05-0.283-0.1-0.46-0.146-0.66l-0.067-0.279
		c-2.408-11.497-8.802-20.924-16.575-25.762c12.19,0.914,22.57,6.957,26.322,16.2c0.393,0.965,1.414,1.522,2.438,1.316
		c1.022-0.204,1.756-1.104,1.748-2.146l-0.003-0.382c-0.034-2.351-0.301-4.734-0.793-7.083c-2.017-9.627-7.599-17.479-14.504-21.407
		c6.557-0.629,11.343,0.637,13.288,2.364c0.786,0.698,1.959,0.733,2.786,0.083c0.825-0.65,1.068-1.798,0.575-2.727l-0.642-1.208
		c-4.656-10.403-17.532-15.954-30.657-13.207c-5.612,1.175-10.635,3.703-14.572,7.276c0.757-9.146,6.522-17.672,15.678-22.85
		c0.35-0.198,0.638-0.488,0.832-0.84l0.075-0.137c0.385-0.695,0.359-1.545-0.066-2.216c-0.427-0.671-1.188-1.057-1.977-1.003
		c-3.065,0.202-6.196,0.635-9.308,1.287c-9.556,2.002-18.153,5.892-24.209,10.954c-4.864,4.066-7.697,8.556-8.271,12.982
		c-5.132-1.9-11.483-2.25-17.779-0.93c-11.043,2.313-20.548,15.447-20.947,16.005c-0.607,0.848-0.525,2.008,0.195,2.763
		c0.719,0.755,1.875,0.891,2.75,0.326c3.312-2.138,7.336-3.745,11.64-4.646c1.127-0.236,2.254-0.382,3.338-0.463
		c-4.7,3.038-8.589,7.719-11.319,13.741c-4.119,9.085-5.109,20.188-2.789,31.263c0.51,2.441,1.182,4.861,1.996,7.192
		c0.316,0.907,1.182,1.507,2.151,1.454c0.959-0.044,1.776-0.714,2.007-1.646c0.017-0.065,1.651-6.571,4.927-13.367
		c2.622-5.437,6.785-12.045,12.244-14.249c-5.852,6.944-15.2,20.264-12.717,32.118c0.621,2.962,1.595,5.82,2.895,8.496
		c0.405,0.837,1.302,1.321,2.223,1.207c0.923-0.115,1.67-0.806,1.858-1.716c1.213-5.873,4.228-15.158,7.887-19.225
		c0.333,1.399,0.713,3.049,1.016,4.495c2.986,14.254,11.862,25.813,22.612,29.448c0.229,0.077,0.462,0.115,0.695,0.115
		c0.595,0,1.176-0.245,1.594-0.697c0.582-0.628,0.74-1.54,0.405-2.328c-0.033-0.078-3.354-7.887-4.162-11.747
		c-2.017-9.623-1.034-19.429,2.669-27.486c4.796,3.927,9.373,8.247,13.688,12.963c11.558,12.634,20.635,27.353,26.979,43.748
		c6.575,16.994,9.909,35.05,9.909,53.669s-3.334,36.676-9.909,53.67c-6.262,16.181-15.191,30.728-26.537,43.252l-87.092-84.594
		c-1.1-1.068-2.849-1.068-3.95,0l-87.092,84.594c-11.345-12.525-20.275-27.071-26.537-43.252
		c-6.575-16.994-9.909-35.051-9.909-53.67s3.334-36.676,9.909-53.669c6.344-16.395,15.421-31.113,26.979-43.748
		c4.314-4.716,8.893-9.036,13.688-12.962c3.704,8.057,4.687,17.862,2.67,27.486c-0.808,3.855-4.129,11.668-4.162,11.746
		c-0.336,0.788-0.178,1.7,0.404,2.328c0.418,0.452,0.999,0.697,1.595,0.697c0.232,0,0.467-0.038,0.695-0.115
		c10.75-3.635,19.625-15.193,22.611-29.448c0.303-1.445,0.684-3.094,1.016-4.493c3.654,4.067,6.671,13.351,7.887,19.223
		c0.189,0.911,0.937,1.601,1.859,1.716c0.922,0.114,1.816-0.37,2.223-1.207c1.3-2.675,2.273-5.533,2.895-8.496
		c2.482-11.853-6.864-25.173-12.717-32.117c5.443,2.198,9.597,8.775,12.213,14.186c3.286,6.798,4.94,13.366,4.957,13.431
		c0.231,0.932,1.049,1.601,2.008,1.645c0.959,0.052,1.834-0.547,2.151-1.454c0.813-2.33,1.485-4.75,1.996-7.191
		c3.997-19.081-2.183-37.227-14.163-45.008c1.1,0.081,2.247,0.228,3.392,0.467c4.304,0.902,8.329,2.508,11.64,4.646
		c0.877,0.565,2.031,0.429,2.751-0.326c0.72-0.755,0.802-1.915,0.194-2.763c-0.398-0.558-9.904-13.692-20.947-16.005
		c-6.297-1.318-12.646-0.97-17.779,0.931c-0.573-4.427-3.406-8.917-8.271-12.982c-6.057-5.062-14.654-8.952-24.21-10.954
		c-3.111-0.652-6.242-1.084-9.307-1.287c-0.785-0.054-1.551,0.332-1.978,1.003c-0.426,0.671-0.451,1.521-0.067,2.216l0.076,0.137
		c0.194,0.352,0.482,0.642,0.832,0.84c9.155,5.178,14.921,13.704,15.679,22.85c-3.938-3.573-8.961-6.1-14.573-7.276
		c-13.123-2.75-26.001,2.804-30.657,13.207l-0.642,1.208C66.84,92.596,67.083,93.745,67.909,94.394z"/>
</g>
<text transform="matrix(1 0 0 1 118.4912 219.4434)" fill="#CA78A0" font-family="'ArialRoundedMTBold'" font-size="38.3439">TUCKER</text>
</svg>
